<mxfile>
    <diagram id="gtKWO9b98K2QI5OwDrGA" name="Page-1">
        <mxGraphModel dx="704" dy="550" grid="1" gridSize="10" guides="1" tooltips="1" connect="1" arrows="1" fold="1" page="1" pageScale="1" pageWidth="850" pageHeight="1100" math="0" shadow="0">
            <root>
                <mxCell id="0"/>
                <mxCell id="1" parent="0"/>
                <mxCell id="6" value="" style="edgeStyle=orthogonalEdgeStyle;rounded=0;orthogonalLoop=1;jettySize=auto;html=1;" edge="1" parent="1" source="4" target="5">
                    <mxGeometry relative="1" as="geometry"/>
                </mxCell>
                <mxCell id="4" value="Account" style="fontStyle=0;" vertex="1" parent="1">
                    <mxGeometry x="300" y="260" width="120" height="40" as="geometry"/>
                </mxCell>
                <mxCell id="8" value="" style="edgeStyle=orthogonalEdgeStyle;rounded=0;orthogonalLoop=1;jettySize=auto;html=1;" edge="1" parent="1" source="5" target="7">
                    <mxGeometry relative="1" as="geometry"/>
                </mxCell>
                <mxCell id="5" value="Statements" style="fontStyle=0;" vertex="1" parent="1">
                    <mxGeometry x="500" y="260" width="120" height="40" as="geometry"/>
                </mxCell>
                <mxCell id="10" value="" style="edgeStyle=orthogonalEdgeStyle;rounded=0;orthogonalLoop=1;jettySize=auto;html=1;" edge="1" parent="1" source="7" target="9">
                    <mxGeometry relative="1" as="geometry"/>
                </mxCell>
                <mxCell id="7" value="Transactions" style="fontStyle=0;" vertex="1" parent="1">
                    <mxGeometry x="700" y="260" width="120" height="40" as="geometry"/>
                </mxCell>
                <mxCell id="9" value="Transactions" style="fontStyle=0;" vertex="1" parent="1">
                    <mxGeometry x="700" y="380" width="120" height="40" as="geometry"/>
                </mxCell>
            </root>
        </mxGraphModel>
    </diagram>
</mxfile>